<?xml version="1.0" encoding="UTF-8"?>
<!DOCTYPE svg PUBLIC "-//W3C//DTD SVG 1.1//EN" "http://www.w3.org/Graphics/SVG/1.1/DTD/svg11.dtd">
<svg xmlns="http://www.w3.org/2000/svg" version="1.1" width="703px" height="469px" style="shape-rendering:geometricPrecision; text-rendering:geometricPrecision; image-rendering:optimizeQuality; fill-rule:evenodd; clip-rule:evenodd" xmlns:xlink="http://www.w3.org/1999/xlink">
<g><path style="opacity:1" fill="#050505" d="M -0.5,-0.5 C 233.833,-0.5 468.167,-0.5 702.5,-0.5C 702.5,155.833 702.5,312.167 702.5,468.5C 468.167,468.5 233.833,468.5 -0.5,468.5C -0.5,312.167 -0.5,155.833 -0.5,-0.5 Z"/></g>
<g><path style="opacity:1" fill="#f2f2f2" d="M 466.5,85.5 C 466.539,86.5832 466.873,87.5832 467.5,88.5C 466.807,89.5178 466.141,90.5178 465.5,91.5C 439.571,68.7031 409.571,54.2031 375.5,48C 369.309,47.7278 363.143,47.2278 357,46.5C 356.167,46.8333 355.333,47.1667 354.5,47.5C 355.857,49.1856 357.19,50.8523 358.5,52.5C 359.656,54.8239 360.656,57.1572 361.5,59.5C 361.5,60.5 361.5,61.5 361.5,62.5C 362.959,62.4326 364.292,62.7659 365.5,63.5C 378.436,88.6989 392.436,113.366 407.5,137.5C 409.747,138.374 412.08,138.708 414.5,138.5C 414.167,139.167 413.833,139.833 413.5,140.5C 412.609,141.11 411.609,141.443 410.5,141.5C 407.607,141.031 405.607,142.031 404.5,144.5C 377.187,146.492 349.52,147.158 321.5,146.5C 313.35,145.507 305.017,145.174 296.5,145.5C 294.938,145.267 293.605,144.6 292.5,143.5C 292.5,142.167 292.5,140.833 292.5,139.5C 306.702,116.156 320.202,92.4895 333,68.5C 337.45,61.0543 342.284,53.8876 347.5,47C 313.924,47.4556 283.257,57.1222 255.5,76C 244.039,85.125 232.873,94.625 222,104.5C 213.185,114.796 205.351,125.796 198.5,137.5C 205.468,138.497 212.468,138.83 219.5,138.5C 218.338,139.678 217.338,140.845 216.5,142C 218.319,142.74 219.652,143.907 220.5,145.5C 213.5,145.5 206.5,145.5 199.5,145.5C 199.5,157.833 199.5,170.167 199.5,182.5C 199.5,184.833 199.5,187.167 199.5,189.5C 199.28,196.543 199.614,203.543 200.5,210.5C 201.01,213.388 200.344,215.721 198.5,217.5C 196.995,193.522 195.995,169.522 195.5,145.5C 194.167,146.167 192.833,146.833 191.5,147.5C 191.297,145.956 190.63,144.622 189.5,143.5C 190.309,141.929 190.643,140.262 190.5,138.5C 222.295,85.2696 268.628,52.7696 329.5,41C 381.573,36.9707 427.24,51.804 466.5,85.5 Z"/></g>
<g><path style="opacity:1" fill="#080808" d="M 292.5,139.5 C 291.732,140.263 291.232,141.263 291,142.5C 284.751,141.062 278.585,139.562 272.5,138C 278.145,140.55 283.979,142.717 290,144.5C 290.902,144.257 291.735,143.923 292.5,143.5C 293.605,144.6 294.938,145.267 296.5,145.5C 297.167,146.167 297.833,146.833 298.5,147.5C 295.319,147.002 292.653,147.835 290.5,150C 291.448,150.483 292.448,150.649 293.5,150.5C 293.5,151.167 293.5,151.833 293.5,152.5C 292.883,152.611 292.383,152.944 292,153.5C 291.583,152.244 290.75,151.577 289.5,151.5C 289.67,150.178 289.337,149.011 288.5,148C 286.564,147.187 284.564,146.687 282.5,146.5C 276.382,142.785 269.716,140.119 262.5,138.5C 260.657,137.717 258.657,137.05 256.5,136.5C 255.749,135.624 255.249,134.624 255,133.5C 254.586,133.957 254.086,134.291 253.5,134.5C 251.745,138.278 251.078,142.278 251.5,146.5C 251.5,158.5 251.5,170.5 251.5,182.5C 250.669,170.674 250.169,158.674 250,146.5C 249.242,143.017 247.409,140.183 244.5,138C 235.99,137.177 227.656,137.343 219.5,138.5C 212.468,138.83 205.468,138.497 198.5,137.5C 205.351,125.796 213.185,114.796 222,104.5C 232.873,94.625 244.039,85.125 255.5,76C 283.257,57.1222 313.924,47.4556 347.5,47C 342.284,53.8876 337.45,61.0543 333,68.5C 320.202,92.4895 306.702,116.156 292.5,139.5 Z"/></g>
<g><path style="opacity:1" fill="#060607" d="M 465.5,91.5 C 478.711,103.267 490.044,116.6 499.5,131.5C 488.833,132.167 478.167,132.833 467.5,133.5C 465.067,133.273 463.401,134.273 462.5,136.5C 455.578,137.469 448.578,138.136 441.5,138.5C 432.5,138.5 423.5,138.5 414.5,138.5C 412.08,138.708 409.747,138.374 407.5,137.5C 392.436,113.366 378.436,88.6989 365.5,63.5C 365.536,60.1065 364.203,58.7732 361.5,59.5C 362.39,57.2181 362.556,54.8848 362,52.5C 360.855,51.3157 359.688,51.3157 358.5,52.5C 357.19,50.8523 355.857,49.1856 354.5,47.5C 355.333,47.1667 356.167,46.8333 357,46.5C 363.143,47.2278 369.309,47.7278 375.5,48C 409.571,54.2031 439.571,68.7031 465.5,91.5 Z"/></g>
<g><path style="opacity:1" fill="#6b6b6d" d="M 361.5,59.5 C 360.656,57.1572 359.656,54.8239 358.5,52.5C 359.688,51.3157 360.855,51.3157 362,52.5C 362.556,54.8848 362.39,57.2181 361.5,59.5 Z"/></g>
<g><path style="opacity:1" fill="#8d8c8d" d="M 365.5,63.5 C 364.292,62.7659 362.959,62.4326 361.5,62.5C 361.5,61.5 361.5,60.5 361.5,59.5C 364.203,58.7732 365.536,60.1065 365.5,63.5 Z"/></g>
<g><path style="opacity:1" fill="#858387" d="M 354.5,64.5 C 354.44,63.9569 354.107,63.6236 353.5,63.5C 352.113,65.21 350.779,66.8767 349.5,68.5C 349.286,62.4094 351.953,60.9094 357.5,64C 356.552,64.4828 355.552,64.6495 354.5,64.5 Z"/></g>
<g><path style="opacity:1" fill="#343236" d="M 321.5,67.5 C 326.014,67.6932 327.347,69.8599 325.5,74C 320.795,74.1057 319.462,71.939 321.5,67.5 Z"/></g>
<g><path style="opacity:1" fill="#0f0e0f" d="M 362.5,86.5 C 364.293,88.4261 365.293,90.7594 365.5,93.5C 364.909,94.1515 364.243,94.8182 363.5,95.5C 363.624,96.1067 363.957,96.44 364.5,96.5C 364.94,99.3798 365.94,102.046 367.5,104.5C 370.431,109.121 373.431,113.787 376.5,118.5C 377.182,117.757 377.849,117.091 378.5,116.5C 382.665,122.158 386.332,128.158 389.5,134.5C 386.713,135.477 383.713,135.81 380.5,135.5C 379.209,135.737 378.209,135.404 377.5,134.5C 376.571,133.685 375.571,132.852 374.5,132C 369.524,130.919 364.524,129.919 359.5,129C 355,126.833 350.5,124.667 346,122.5C 339.998,125.699 334.164,129.032 328.5,132.5C 325.99,132.927 323.657,133.593 321.5,134.5C 319.585,134.216 317.919,134.549 316.5,135.5C 314.585,135.784 312.919,135.451 311.5,134.5C 314.942,131.288 317.109,127.288 318,122.5C 328.376,105.74 338.209,88.74 347.5,71.5C 348.721,70.9717 349.887,70.305 351,69.5C 354.059,75.9494 357.392,82.2827 361,88.5C 361.278,87.5842 361.778,86.9175 362.5,86.5 Z"/></g>
<g><path style="opacity:1" fill="#312f31" d="M 354.5,64.5 C 353.833,66.8194 353.666,69.1527 354,71.5C 357.116,76.3565 359.949,81.3565 362.5,86.5C 361.778,86.9175 361.278,87.5842 361,88.5C 357.392,82.2827 354.059,75.9494 351,69.5C 349.887,70.305 348.721,70.9717 347.5,71.5C 346.472,71.0742 345.139,71.0742 343.5,71.5C 343.5,70.5 343.5,69.5 343.5,68.5C 345.691,69.2907 347.691,69.2907 349.5,68.5C 350.779,66.8767 352.113,65.21 353.5,63.5C 354.107,63.6236 354.44,63.9569 354.5,64.5 Z"/></g>
<g><path style="opacity:1" fill="#e9e9e9" d="M 466.5,85.5 C 473.43,90.9262 479.93,96.9262 486,103.5C 495.441,114.941 504.108,126.941 512,139.5C 523.964,171.56 534.797,203.893 544.5,236.5C 544.145,237.522 543.478,238.189 542.5,238.5C 542.5,237.833 542.167,237.5 541.5,237.5C 539.97,235.875 538.637,234.041 537.5,232C 529.837,205.01 521.003,178.51 511,152.5C 508.921,148.007 506.588,143.674 504,139.5C 503.5,145.825 503.334,152.158 503.5,158.5C 503.5,180.833 503.5,203.167 503.5,225.5C 502.833,225.5 502.167,225.5 501.5,225.5C 501.831,196.662 501.498,167.995 500.5,139.5C 501.275,137.612 501.275,135.612 500.5,133.5C 500.672,132.508 500.338,131.842 499.5,131.5C 490.044,116.6 478.711,103.267 465.5,91.5C 466.141,90.5178 466.807,89.5178 467.5,88.5C 466.873,87.5832 466.539,86.5832 466.5,85.5 Z"/></g>
<g><path style="opacity:1" fill="#838686" d="M 367.5,104.5 C 365.94,102.046 364.94,99.3798 364.5,96.5C 364.81,95.2617 365.31,95.2617 366,96.5C 366.977,99.1024 368.144,101.602 369.5,104C 368.906,104.464 368.239,104.631 367.5,104.5 Z"/></g>
<g><path style="opacity:1" fill="#28282a" d="M 365.5,93.5 C 366.458,93.9528 367.292,94.6195 368,95.5C 371.793,102.394 375.293,109.394 378.5,116.5C 377.849,117.091 377.182,117.757 376.5,118.5C 373.431,113.787 370.431,109.121 367.5,104.5C 368.239,104.631 368.906,104.464 369.5,104C 368.144,101.602 366.977,99.1024 366,96.5C 365.31,95.2617 364.81,95.2617 364.5,96.5C 363.957,96.44 363.624,96.1067 363.5,95.5C 364.243,94.8182 364.909,94.1515 365.5,93.5 Z"/></g>
<g><path style="opacity:1" fill="#626467" d="M 341.5,107.5 C 344.984,106.835 348.651,106.501 352.5,106.5C 356.565,106.511 360.232,107.178 363.5,108.5C 356.187,107.813 348.854,107.479 341.5,107.5 Z"/></g>
<g><path style="opacity:1" fill="#ebebeb" d="M 341.5,107.5 C 348.854,107.479 356.187,107.813 363.5,108.5C 364.758,112.123 364.758,115.79 363.5,119.5C 357.561,120.457 351.561,120.79 345.5,120.5C 344.791,119.596 343.791,119.263 342.5,119.5C 342.813,116.753 342.48,114.086 341.5,111.5C 339.954,112.212 338.954,113.378 338.5,115C 339.424,116.15 339.424,117.15 338.5,118C 340.619,118.342 340.953,119.175 339.5,120.5C 337.801,120.66 336.134,120.494 334.5,120C 333.941,119.275 333.608,118.442 333.5,117.5C 334.139,114.525 334.639,111.525 335,108.5C 337.041,107.577 339.208,107.244 341.5,107.5 Z"/></g>
<g><path style="opacity:1" fill="#686764" d="M 345.5,120.5 C 343.5,120.5 341.5,120.5 339.5,120.5C 340.953,119.175 340.619,118.342 338.5,118C 339.424,117.15 339.424,116.15 338.5,115C 338.954,113.378 339.954,112.212 341.5,111.5C 342.48,114.086 342.813,116.753 342.5,119.5C 343.791,119.263 344.791,119.596 345.5,120.5 Z"/></g>
<g><path style="opacity:1" fill="#3b3c3e" d="M 377.5,134.5 C 376.5,134.5 375.5,134.5 374.5,134.5C 371.742,133.239 368.742,132.406 365.5,132C 353.145,131.272 340.812,131.438 328.5,132.5C 334.164,129.032 339.998,125.699 346,122.5C 350.5,124.667 355,126.833 359.5,129C 364.524,129.919 369.524,130.919 374.5,132C 375.571,132.852 376.571,133.685 377.5,134.5 Z"/></g>
<g><path style="opacity:1" fill="#747475" d="M 374.5,134.5 C 356.833,134.5 339.167,134.5 321.5,134.5C 323.657,133.593 325.99,132.927 328.5,132.5C 340.812,131.438 353.145,131.272 365.5,132C 368.742,132.406 371.742,133.239 374.5,134.5 Z"/></g>
<g><path style="opacity:1" fill="#505051" d="M 499.5,131.5 C 500.338,131.842 500.672,132.508 500.5,133.5C 489.5,133.5 478.5,133.5 467.5,133.5C 478.167,132.833 488.833,132.167 499.5,131.5 Z"/></g>
<g><path style="opacity:1" fill="#888687" d="M 311.5,134.5 C 312.919,135.451 314.585,135.784 316.5,135.5C 314.372,136.629 312.039,136.796 309.5,136C 310.044,135.283 310.711,134.783 311.5,134.5 Z"/></g>
<g><path style="opacity:1" fill="#898888" d="M 389.5,134.5 C 392.947,134.814 396.28,135.648 399.5,137C 392.967,137.411 386.634,136.911 380.5,135.5C 383.713,135.81 386.713,135.477 389.5,134.5 Z"/></g>
<g><path style="opacity:1" fill="#faf9fa" d="M 251.5,182.5 C 253.483,182.157 254.817,182.824 255.5,184.5C 253.833,184.5 252.167,184.5 250.5,184.5C 250.5,185.833 250.5,187.167 250.5,188.5C 279.167,188.5 307.833,188.5 336.5,188.5C 335.188,195.089 334.521,201.756 334.5,208.5C 306.833,208.5 279.167,208.5 251.5,208.5C 251.759,217.031 251.426,225.531 250.5,234C 251.986,238.354 252.819,242.854 253,247.5C 269.306,308.376 286.139,369.042 303.5,429.5C 303.5,430.5 303.5,431.5 303.5,432.5C 291.5,432.5 279.5,432.5 267.5,432.5C 251.925,374.534 237.425,316.201 224,257.5C 207.872,316.375 191.705,375.042 175.5,433.5C 166.435,434.136 157.769,433.47 149.5,431.5C 163.713,390.468 177.38,349.302 190.5,308C 188.481,307.55 186.648,306.717 185,305.5C 183.037,298.981 181.37,292.315 180,285.5C 176.323,280.452 174.49,274.786 174.5,268.5C 175.138,266.54 175.138,264.707 174.5,263C 175.448,262.517 176.448,262.351 177.5,262.5C 178.37,266.85 179.37,271.183 180.5,275.5C 181.183,275.137 181.85,274.804 182.5,274.5C 183.818,280.622 185.485,286.622 187.5,292.5C 188.256,295.003 189.256,297.337 190.5,299.5C 190.215,301.288 190.548,302.955 191.5,304.5C 192.386,303.675 192.719,302.675 192.5,301.5C 193.038,299.883 193.371,298.216 193.5,296.5C 194.613,295.054 194.78,293.387 194,291.5C 193.076,293.495 191.91,293.828 190.5,292.5C 191.048,289.916 192.715,288.916 195.5,289.5C 195.205,287.265 195.539,285.265 196.5,283.5C 197.222,283.918 197.722,284.584 198,285.5C 198.662,283.187 199.162,280.854 199.5,278.5C 200.15,276.565 200.483,274.565 200.5,272.5C 200.833,271.833 201.167,271.167 201.5,270.5C 202.926,267.024 203.926,263.357 204.5,259.5C 204.5,258.833 204.5,258.167 204.5,257.5C 207.386,249.077 209.386,240.411 210.5,231.5C 215.833,231.5 221.167,231.5 226.5,231.5C 226.833,231.5 227.167,231.5 227.5,231.5C 229.167,231.5 230.833,231.5 232.5,231.5C 232.833,231.5 233.167,231.5 233.5,231.5C 237.5,231.5 241.5,231.5 245.5,231.5C 245.827,221.319 245.494,211.319 244.5,201.5C 245.813,183.372 245.813,165.372 244.5,147.5C 243.791,146.596 242.791,146.263 241.5,146.5C 238.713,145.523 235.713,145.19 232.5,145.5C 230.833,145.5 229.167,145.5 227.5,145.5C 225.167,145.5 222.833,145.5 220.5,145.5C 219.652,143.907 218.319,142.74 216.5,142C 217.338,140.845 218.338,139.678 219.5,138.5C 227.656,137.343 235.99,137.177 244.5,138C 247.409,140.183 249.242,143.017 250,146.5C 250.169,158.674 250.669,170.674 251.5,182.5 Z"/></g>
<g><path style="opacity:1" fill="#787676" d="M 462.5,136.5 C 462.5,137.833 462.5,139.167 462.5,140.5C 458.5,140.5 454.5,140.5 450.5,140.5C 450.824,147.354 450.491,154.021 449.5,160.5C 449.821,154.974 449.488,149.64 448.5,144.5C 448.5,142.833 448.5,141.167 448.5,139.5C 445.941,139.802 443.607,139.468 441.5,138.5C 448.578,138.136 455.578,137.469 462.5,136.5 Z"/></g>
<g><path style="opacity:1" fill="#c6c6c6" d="M 414.5,138.5 C 423.5,138.5 432.5,138.5 441.5,138.5C 443.607,139.468 445.941,139.802 448.5,139.5C 448.5,141.167 448.5,142.833 448.5,144.5C 445.941,144.802 443.607,144.468 441.5,143.5C 443.655,143.628 445.655,143.128 447.5,142C 441.509,141.501 435.509,141.334 429.5,141.5C 424.187,140.902 418.854,140.569 413.5,140.5C 413.833,139.833 414.167,139.167 414.5,138.5 Z"/></g>
<g><path style="opacity:1" fill="#f9f9f9" d="M 467.5,133.5 C 478.5,133.5 489.5,133.5 500.5,133.5C 501.275,135.612 501.275,137.612 500.5,139.5C 499.833,153.663 499.5,167.996 499.5,182.5C 499.501,197.183 500.167,211.516 501.5,225.5C 502.167,225.5 502.833,225.5 503.5,225.5C 506.625,226.479 509.958,226.813 513.5,226.5C 519.124,227.993 524.791,229.66 530.5,231.5C 531.965,232.737 533.632,233.737 535.5,234.5C 537.216,236.025 539.216,237.025 541.5,237.5C 542.167,237.5 542.5,237.833 542.5,238.5C 542.666,247.839 542.5,257.173 542,266.5C 541.053,275.302 536.386,277.969 528,274.5C 527.667,268.5 527.333,262.5 527,256.5C 520.227,251.438 512.727,249.105 504.5,249.5C 503.502,257.472 503.169,265.472 503.5,273.5C 501.5,273.5 499.5,273.5 497.5,273.5C 497.5,269.833 497.5,266.167 497.5,262.5C 497.5,257.167 497.5,251.833 497.5,246.5C 495.585,246.216 493.919,246.549 492.5,247.5C 478.632,250.515 466.799,257.182 457,267.5C 438.669,291.785 432.002,319.118 437,349.5C 440.292,370.824 449.792,388.99 465.5,404C 474.881,411.529 485.548,415.362 497.5,415.5C 497.5,404.5 497.5,393.5 497.5,382.5C 499.167,382.5 500.833,382.5 502.5,382.5C 502.5,393.5 502.5,404.5 502.5,415.5C 503.791,415.737 504.791,415.404 505.5,414.5C 513.658,413.68 520.825,410.68 527,405.5C 527.5,398.842 527.666,392.175 527.5,385.5C 531.182,385.335 534.848,385.501 538.5,386C 539.126,386.75 539.626,387.584 540,388.5C 541.98,399.05 542.98,409.717 543,420.5C 543.827,421.662 544.66,422.829 545.5,424C 545.333,424.5 545.167,425 545,425.5C 540.773,428.274 536.273,430.441 531.5,432C 475.103,447.218 436.936,427.385 417,372.5C 403.829,330.157 410.162,291.157 436,255.5C 440.089,251.241 444.255,247.241 448.5,243.5C 450.973,241.673 453.639,240.34 456.5,239.5C 459.498,236.998 462.832,234.998 466.5,233.5C 467.71,233.068 468.71,232.401 469.5,231.5C 473.364,230.898 477.031,229.732 480.5,228C 484.77,226.925 489.103,226.425 493.5,226.5C 495.167,226.5 496.833,226.5 498.5,226.5C 498.5,202.167 498.5,177.833 498.5,153.5C 498.5,148.833 498.5,144.167 498.5,139.5C 488.319,139.173 478.319,139.506 468.5,140.5C 467.502,170.662 467.169,200.995 467.5,231.5C 465.833,231.5 464.167,231.5 462.5,231.5C 462.5,202.5 462.5,173.5 462.5,144.5C 460.052,143.527 457.385,143.194 454.5,143.5C 454.5,150.833 454.5,158.167 454.5,165.5C 455.44,173.779 455.773,182.112 455.5,190.5C 455.5,195.833 455.5,201.167 455.5,206.5C 439.011,207.075 422.678,207.741 406.5,208.5C 406.263,209.791 406.596,210.791 407.5,211.5C 407.5,211.833 407.5,212.167 407.5,212.5C 405.952,212.179 405.285,211.179 405.5,209.5C 403.856,209.714 402.356,209.38 401,208.5C 400.819,205.305 400.319,202.305 399.5,199.5C 399.5,197.833 399.5,196.167 399.5,194.5C 399.232,192.901 399.566,191.568 400.5,190.5C 400.5,191.5 400.5,192.5 400.5,193.5C 416.5,193.5 432.5,193.5 448.5,193.5C 448.784,191.585 448.451,189.919 447.5,188.5C 444.359,187.679 441.025,187.179 437.5,187C 439.384,186.784 441.051,186.117 442.5,185C 441.584,184.722 440.918,184.222 440.5,183.5C 443.5,183.5 446.5,183.5 449.5,183.5C 449.5,175.833 449.5,168.167 449.5,160.5C 450.491,154.021 450.824,147.354 450.5,140.5C 454.5,140.5 458.5,140.5 462.5,140.5C 462.5,139.167 462.5,137.833 462.5,136.5C 463.401,134.273 465.067,133.273 467.5,133.5 Z"/></g>
<g><path style="opacity:1" fill="#696969" d="M 468.5,140.5 C 478.319,139.506 488.319,139.173 498.5,139.5C 498.5,144.167 498.5,148.833 498.5,153.5C 498.167,153.5 497.833,153.5 497.5,153.5C 497.5,149.167 497.5,144.833 497.5,140.5C 493.776,140.106 490.276,140.773 487,142.5C 481.015,140.639 474.848,139.973 468.5,140.5 Z"/></g>
<g><path style="opacity:1" fill="#5c5c5d" d="M 429.5,141.5 C 435.509,141.334 441.509,141.501 447.5,142C 445.655,143.128 443.655,143.628 441.5,143.5C 438.322,142.295 434.988,142.295 431.5,143.5C 430.287,143.253 429.62,142.586 429.5,141.5 Z"/></g>
<g><path style="opacity:1" fill="#6d6d6d" d="M 262.5,138.5 C 260.436,138.687 258.436,139.187 256.5,140C 256.833,140.333 257.167,140.667 257.5,141C 261.649,141.978 265.649,142.645 269.5,143C 272.5,144.833 275.5,146.667 278.5,148.5C 278.145,149.522 277.478,150.189 276.5,150.5C 269.113,144.157 260.779,142.823 251.5,146.5C 251.078,142.278 251.745,138.278 253.5,134.5C 254.086,134.291 254.586,133.957 255,133.5C 255.249,134.624 255.749,135.624 256.5,136.5C 258.657,137.05 260.657,137.717 262.5,138.5 Z"/></g>
<g><path style="opacity:1" fill="#3e3e3e" d="M 292.5,139.5 C 292.5,140.833 292.5,142.167 292.5,143.5C 291.735,143.923 290.902,144.257 290,144.5C 283.979,142.717 278.145,140.55 272.5,138C 278.585,139.562 284.751,141.062 291,142.5C 291.232,141.263 291.732,140.263 292.5,139.5 Z"/></g>
<g><path style="opacity:1" fill="#4b4a4a" d="M 410.5,141.5 C 409.249,144.489 407.249,145.489 404.5,144.5C 405.607,142.031 407.607,141.031 410.5,141.5 Z"/></g>
<g><path style="opacity:1" fill="#8b8b8c" d="M 441.5,143.5 C 443.607,144.468 445.941,144.802 448.5,144.5C 443.684,145.65 438.684,145.816 433.5,145C 436.014,143.748 438.68,143.248 441.5,143.5 Z"/></g>
<g><path style="opacity:1" fill="#989898" d="M 462.5,144.5 C 462.167,144.5 461.833,144.5 461.5,144.5C 459.5,144.5 457.5,144.5 455.5,144.5C 455.825,151.687 455.491,158.687 454.5,165.5C 454.5,158.167 454.5,150.833 454.5,143.5C 457.385,143.194 460.052,143.527 462.5,144.5 Z"/></g>
<g><path style="opacity:1" fill="#d8d8d9" d="M 262.5,138.5 C 269.716,140.119 276.382,142.785 282.5,146.5C 281.5,146.5 280.5,146.5 279.5,146.5C 280.227,150.224 278.894,152.891 275.5,154.5C 274.989,156.884 273.989,158.884 272.5,160.5C 272.5,158.833 272.5,157.167 272.5,155.5C 273.111,153.225 274.445,151.559 276.5,150.5C 277.478,150.189 278.145,149.522 278.5,148.5C 275.5,146.667 272.5,144.833 269.5,143C 265.649,142.645 261.649,141.978 257.5,141C 257.167,140.667 256.833,140.333 256.5,140C 258.436,139.187 260.436,138.687 262.5,138.5 Z"/></g>
<g><path style="opacity:1" fill="#fafafa" d="M 282.5,146.5 C 284.564,146.687 286.564,147.187 288.5,148C 289.337,149.011 289.67,150.178 289.5,151.5C 289.859,153.766 289.192,155.599 287.5,157C 288.056,157.383 288.389,157.883 288.5,158.5C 288.5,158.833 288.5,159.167 288.5,159.5C 287.131,167.63 286.464,175.963 286.5,184.5C 285.791,185.404 284.791,185.737 283.5,185.5C 279.702,184.517 275.702,184.183 271.5,184.5C 271.5,181.5 271.5,178.5 271.5,175.5C 271.413,170.463 271.746,165.463 272.5,160.5C 273.989,158.884 274.989,156.884 275.5,154.5C 278.894,152.891 280.227,150.224 279.5,146.5C 280.5,146.5 281.5,146.5 282.5,146.5 Z"/></g>
<g><path style="opacity:1" fill="#404040" d="M 296.5,145.5 C 305.017,145.174 313.35,145.507 321.5,146.5C 317.154,146.334 312.821,146.501 308.5,147C 314.016,147.173 319.349,147.673 324.5,148.5C 318.833,148.5 313.167,148.5 307.5,148.5C 304.713,147.523 301.713,147.19 298.5,147.5C 297.833,146.833 297.167,146.167 296.5,145.5 Z"/></g>
<g><path style="opacity:1" fill="#070606" d="M 226.5,231.5 C 221.167,231.5 215.833,231.5 210.5,231.5C 209.386,240.411 207.386,249.077 204.5,257.5C 203.508,249.684 203.174,241.684 203.5,233.5C 203.5,225.5 203.5,217.5 203.5,209.5C 203.833,191.821 203.5,174.154 202.5,156.5C 201.501,167.48 201.168,178.48 201.5,189.5C 200.833,189.5 200.167,189.5 199.5,189.5C 199.5,187.167 199.5,184.833 199.5,182.5C 200.495,170.678 200.828,158.678 200.5,146.5C 209.167,146.5 217.833,146.5 226.5,146.5C 226.5,174.833 226.5,203.167 226.5,231.5 Z"/></g>
<g><path style="opacity:1" fill="#aaa9a9" d="M 298.5,147.5 C 301.713,147.19 304.713,147.523 307.5,148.5C 302.489,148.334 297.489,148.501 292.5,149C 302.884,148.854 312.884,149.687 322.5,151.5C 312.822,151.425 303.156,151.092 293.5,150.5C 292.448,150.649 291.448,150.483 290.5,150C 292.653,147.835 295.319,147.002 298.5,147.5 Z"/></g>
<g><path style="opacity:1" fill="#cccdce" d="M 307.5,148.5 C 313.167,148.5 318.833,148.5 324.5,148.5C 329.833,148.5 335.167,148.5 340.5,148.5C 358.671,149.167 377.004,149.833 395.5,150.5C 371.176,151.5 346.842,151.833 322.5,151.5C 312.884,149.687 302.884,148.854 292.5,149C 297.489,148.501 302.489,148.334 307.5,148.5 Z"/></g>
<g><path style="opacity:1" fill="#7b7a7b" d="M 340.5,148.5 C 364.833,148.5 389.167,148.5 413.5,148.5C 413.5,149.833 413.5,151.167 413.5,152.5C 377.492,152.691 341.492,153.357 305.5,154.5C 326.156,155.5 346.823,155.833 367.5,155.5C 367.5,155.833 367.5,156.167 367.5,156.5C 342.661,156.831 317.994,156.498 293.5,155.5C 296.247,155.813 298.914,155.48 301.5,154.5C 301.291,153.914 300.957,153.414 300.5,153C 298.19,152.503 295.857,152.337 293.5,152.5C 293.5,151.833 293.5,151.167 293.5,150.5C 303.156,151.092 312.822,151.425 322.5,151.5C 346.842,151.833 371.176,151.5 395.5,150.5C 377.004,149.833 358.671,149.167 340.5,148.5 Z"/></g>
<g><path style="opacity:1" fill="#ebeaea" d="M 293.5,152.5 C 295.857,152.337 298.19,152.503 300.5,153C 300.957,153.414 301.291,153.914 301.5,154.5C 298.914,155.48 296.247,155.813 293.5,155.5C 293.5,154.5 293.5,153.5 293.5,152.5 Z"/></g>
<g><path style="opacity:1" fill="#818081" d="M 408.5,155.5 C 409.919,154.549 411.585,154.216 413.5,154.5C 413.5,163.167 413.5,171.833 413.5,180.5C 412.167,180.5 410.833,180.5 409.5,180.5C 410.209,179.596 411.209,179.263 412.5,179.5C 412.5,171.5 412.5,163.5 412.5,155.5C 411.167,155.5 409.833,155.5 408.5,155.5 Z"/></g>
<g><path style="opacity:1" fill="#0f0f10" d="M 413.5,140.5 C 418.854,140.569 424.187,140.902 429.5,141.5C 429.62,142.586 430.287,143.253 431.5,143.5C 434.988,142.295 438.322,142.295 441.5,143.5C 438.68,143.248 436.014,143.748 433.5,145C 438.684,145.816 443.684,145.65 448.5,144.5C 449.488,149.64 449.821,154.974 449.5,160.5C 448.508,167.648 448.175,174.981 448.5,182.5C 442.833,182.5 437.167,182.5 431.5,182.5C 431.822,176.642 431.489,170.975 430.5,165.5C 430.5,161.167 430.5,156.833 430.5,152.5C 430.5,151.167 430.5,149.833 430.5,148.5C 424.833,148.5 419.167,148.5 413.5,148.5C 389.167,148.5 364.833,148.5 340.5,148.5C 335.167,148.5 329.833,148.5 324.5,148.5C 319.349,147.673 314.016,147.173 308.5,147C 312.821,146.501 317.154,146.334 321.5,146.5C 349.52,147.158 377.187,146.492 404.5,144.5C 407.249,145.489 409.249,144.489 410.5,141.5C 411.609,141.443 412.609,141.11 413.5,140.5 Z"/></g>
<g><path style="opacity:1" fill="#515354" d="M 289.5,151.5 C 290.75,151.577 291.583,152.244 292,153.5C 292.383,152.944 292.883,152.611 293.5,152.5C 293.5,153.5 293.5,154.5 293.5,155.5C 291.952,155.821 291.285,156.821 291.5,158.5C 290.5,158.5 289.5,158.5 288.5,158.5C 288.389,157.883 288.056,157.383 287.5,157C 289.192,155.599 289.859,153.766 289.5,151.5 Z"/></g>
<g><path style="opacity:1" fill="#515050" d="M 220.5,145.5 C 222.833,145.5 225.167,145.5 227.5,145.5C 227.5,174.167 227.5,202.833 227.5,231.5C 227.167,231.5 226.833,231.5 226.5,231.5C 226.5,203.167 226.5,174.833 226.5,146.5C 217.833,146.5 209.167,146.5 200.5,146.5C 200.828,158.678 200.495,170.678 199.5,182.5C 199.5,170.167 199.5,157.833 199.5,145.5C 206.5,145.5 213.5,145.5 220.5,145.5 Z"/></g>
<g><path style="opacity:1" fill="#545353" d="M 367.5,156.5 C 367.5,156.167 367.5,155.833 367.5,155.5C 379.167,155.5 390.833,155.5 402.5,155.5C 399.467,157.503 396.467,159.503 393.5,161.5C 393.611,160.883 393.944,160.383 394.5,160C 371.169,159.5 347.836,159.333 324.5,159.5C 347.663,158.668 370.996,158.168 394.5,158C 394.833,157.667 395.167,157.333 395.5,157C 386.173,156.5 376.839,156.334 367.5,156.5 Z"/></g>
<g><path style="opacity:1" fill="#727070" d="M 430.5,152.5 C 430.5,156.833 430.5,161.167 430.5,165.5C 429.4,167.277 428.566,169.277 428,171.5C 427.5,165.175 427.334,158.842 427.5,152.5C 428.5,152.5 429.5,152.5 430.5,152.5 Z"/></g>
<g><path style="opacity:1" fill="#060506" d="M 468.5,140.5 C 474.848,139.973 481.015,140.639 487,142.5C 490.276,140.773 493.776,140.106 497.5,140.5C 497.5,144.833 497.5,149.167 497.5,153.5C 497.5,177.5 497.5,201.5 497.5,225.5C 495.901,225.232 494.568,225.566 493.5,226.5C 489.103,226.425 484.77,226.925 480.5,228C 477.031,229.732 473.364,230.898 469.5,231.5C 468.502,201.338 468.169,171.005 468.5,140.5 Z"/></g>
<g><path style="opacity:1" fill="#6c6e70" d="M 203.5,209.5 C 201.541,203.25 200.874,196.584 201.5,189.5C 201.168,178.48 201.501,167.48 202.5,156.5C 203.5,174.154 203.833,191.821 203.5,209.5 Z"/></g>
<g><path style="opacity:1" fill="#9a9998" d="M 324.5,159.5 C 347.836,159.333 371.169,159.5 394.5,160C 393.944,160.383 393.611,160.883 393.5,161.5C 365.565,160.339 337.565,160.339 309.5,161.5C 310.263,160.732 311.263,160.232 312.5,160C 316.486,159.501 320.486,159.334 324.5,159.5 Z"/></g>
<g><path style="opacity:1" fill="#504f4f" d="M 393.5,161.5 C 391.853,163.326 389.853,164.66 387.5,165.5C 385.19,164.836 382.69,164.503 380,164.5C 376.895,164.611 374.062,165.278 371.5,166.5C 371.5,165.5 371.5,164.5 371.5,163.5C 378.014,163.955 384.347,163.455 390.5,162C 363.328,161.822 336.328,161.656 309.5,161.5C 337.565,160.339 365.565,160.339 393.5,161.5 Z"/></g>
<g><path style="opacity:1" fill="#121212" d="M 293.5,155.5 C 317.994,156.498 342.661,156.831 367.5,156.5C 376.839,156.334 386.173,156.5 395.5,157C 395.167,157.333 394.833,157.667 394.5,158C 370.996,158.168 347.663,158.668 324.5,159.5C 320.486,159.334 316.486,159.501 312.5,160C 311.263,160.232 310.263,160.732 309.5,161.5C 336.328,161.656 363.328,161.822 390.5,162C 384.347,163.455 378.014,163.955 371.5,163.5C 371.5,164.5 371.5,165.5 371.5,166.5C 354.706,165.677 353.706,165.677 368.5,166.5C 368.183,169.572 368.516,172.572 369.5,175.5C 370.183,175.137 370.85,174.804 371.5,174.5C 372.143,176.076 373.143,177.41 374.5,178.5C 374.611,179.117 374.944,179.617 375.5,180C 373.866,180.494 372.199,180.66 370.5,180.5C 367.224,179.878 365.891,177.878 366.5,174.5C 355.495,174.333 344.495,174.5 333.5,175C 332.478,177.545 331.312,180.045 330,182.5C 329.329,183.252 328.496,183.586 327.5,183.5C 326.833,183.5 326.5,183.167 326.5,182.5C 327.871,180.064 328.871,177.397 329.5,174.5C 330.765,173.486 331.431,171.986 331.5,170C 331.492,168.293 331.158,166.793 330.5,165.5C 324.681,164.347 318.681,164.181 312.5,165C 314.973,165.22 316.64,166.386 317.5,168.5C 315.158,172.116 314.825,176.116 316.5,180.5C 316.5,181.5 316.5,182.5 316.5,183.5C 315.167,183.5 313.833,183.5 312.5,183.5C 312.221,180.882 311.554,178.382 310.5,176C 305.094,174.932 299.761,174.099 294.5,173.5C 293.367,160.992 291.533,160.659 289,172.5C 288.501,168.179 288.334,163.846 288.5,159.5C 288.5,159.167 288.5,158.833 288.5,158.5C 289.5,158.5 290.5,158.5 291.5,158.5C 291.285,156.821 291.952,155.821 293.5,155.5 Z"/></g>
<g><path style="opacity:1" fill="#0c0c0c" d="M 402.5,155.5 C 404.5,155.5 406.5,155.5 408.5,155.5C 409.833,155.5 411.167,155.5 412.5,155.5C 412.5,163.5 412.5,171.5 412.5,179.5C 411.209,179.263 410.209,179.596 409.5,180.5C 406.5,180.5 403.5,180.5 400.5,180.5C 399.833,152.5 399.167,152.5 398.5,180.5C 396.833,180.5 395.167,180.5 393.5,180.5C 390.5,180.5 387.5,180.5 384.5,180.5C 384.174,176.116 384.508,171.783 385.5,167.5C 386.182,166.757 386.849,166.091 387.5,165.5C 389.853,164.66 391.853,163.326 393.5,161.5C 396.467,159.503 399.467,157.503 402.5,155.5 Z"/></g>
<g><path style="opacity:1" fill="#f5f4f5" d="M 413.5,148.5 C 419.167,148.5 424.833,148.5 430.5,148.5C 430.5,149.833 430.5,151.167 430.5,152.5C 429.5,152.5 428.5,152.5 427.5,152.5C 427.334,158.842 427.5,165.175 428,171.5C 428.566,169.277 429.4,167.277 430.5,165.5C 430.5,171.5 430.5,177.5 430.5,183.5C 433.833,183.5 437.167,183.5 440.5,183.5C 440.918,184.222 441.584,184.722 442.5,185C 441.051,186.117 439.384,186.784 437.5,187C 441.025,187.179 444.359,187.679 447.5,188.5C 432.063,189.857 416.397,190.523 400.5,190.5C 399.566,191.568 399.232,192.901 399.5,194.5C 398.566,193.432 398.232,192.099 398.5,190.5C 391.825,190.334 385.158,190.5 378.5,191C 377.748,191.671 377.414,192.504 377.5,193.5C 375.5,193.5 373.5,193.5 371.5,193.5C 371.5,192.5 371.5,191.5 371.5,190.5C 368.833,190.5 366.167,190.5 363.5,190.5C 363.5,188.5 363.5,186.5 363.5,184.5C 355.648,184.175 347.982,184.508 340.5,185.5C 339.5,185.5 338.5,185.5 337.5,185.5C 330.978,185.823 324.645,185.49 318.5,184.5C 321.713,184.81 324.713,184.477 327.5,183.5C 328.496,183.586 329.329,183.252 330,182.5C 331.312,180.045 332.478,177.545 333.5,175C 344.495,174.5 355.495,174.333 366.5,174.5C 365.891,177.878 367.224,179.878 370.5,180.5C 372.199,180.66 373.866,180.494 375.5,180C 374.944,179.617 374.611,179.117 374.5,178.5C 373.143,177.41 372.143,176.076 371.5,174.5C 371.5,171.833 371.5,169.167 371.5,166.5C 374.062,165.278 376.895,164.611 380,164.5C 382.69,164.503 385.19,164.836 387.5,165.5C 386.849,166.091 386.182,166.757 385.5,167.5C 384.508,171.783 384.174,176.116 384.5,180.5C 387.5,180.5 390.5,180.5 393.5,180.5C 398.833,181.833 404.167,181.833 409.5,180.5C 410.833,180.5 412.167,180.5 413.5,180.5C 413.5,171.833 413.5,163.167 413.5,154.5C 411.585,154.216 409.919,154.549 408.5,155.5C 406.5,155.5 404.5,155.5 402.5,155.5C 390.833,155.5 379.167,155.5 367.5,155.5C 346.823,155.833 326.156,155.5 305.5,154.5C 341.492,153.357 377.492,152.691 413.5,152.5C 413.5,151.167 413.5,149.833 413.5,148.5 Z"/></g>
<g><path style="opacity:1" fill="#605d5d" d="M 272.5,155.5 C 272.5,157.167 272.5,158.833 272.5,160.5C 271.746,165.463 271.413,170.463 271.5,175.5C 271.167,175.5 270.833,175.5 270.5,175.5C 270.133,168.585 270.799,161.919 272.5,155.5 Z"/></g>
<g><path style="opacity:1" fill="#a2a1a0" d="M 497.5,153.5 C 497.833,153.5 498.167,153.5 498.5,153.5C 498.5,177.833 498.5,202.167 498.5,226.5C 496.833,226.5 495.167,226.5 493.5,226.5C 494.568,225.566 495.901,225.232 497.5,225.5C 497.5,201.5 497.5,177.5 497.5,153.5 Z"/></g>
<g><path style="opacity:1" fill="#f6f6f7" d="M 330.5,165.5 C 330.736,168.609 330.403,171.609 329.5,174.5C 328.871,177.397 327.871,180.064 326.5,182.5C 322.821,182.94 319.488,182.273 316.5,180.5C 314.825,176.116 315.158,172.116 317.5,168.5C 320.743,169.58 324.076,169.747 327.5,169C 324.833,168.667 322.167,168.333 319.5,168C 319.043,167.586 318.709,167.086 318.5,166.5C 322.445,165.509 326.445,165.176 330.5,165.5 Z"/></g>
<g><path style="opacity:1" fill="#878788" d="M 330.5,165.5 C 326.445,165.176 322.445,165.509 318.5,166.5C 318.709,167.086 319.043,167.586 319.5,168C 322.167,168.333 324.833,168.667 327.5,169C 324.076,169.747 320.743,169.58 317.5,168.5C 316.64,166.386 314.973,165.22 312.5,165C 318.681,164.181 324.681,164.347 330.5,165.5 Z"/></g>
<g><path style="opacity:1" fill="#6f6c6a" d="M 409.5,180.5 C 404.167,181.833 398.833,181.833 393.5,180.5C 395.167,180.5 396.833,180.5 398.5,180.5C 399.167,152.5 399.833,152.5 400.5,180.5C 403.5,180.5 406.5,180.5 409.5,180.5 Z"/></g>
<g><path style="opacity:1" fill="#9b9a9d" d="M 330.5,165.5 C 331.158,166.793 331.492,168.293 331.5,170C 331.431,171.986 330.765,173.486 329.5,174.5C 330.403,171.609 330.736,168.609 330.5,165.5 Z"/></g>
<g><path style="opacity:1" fill="#4b4848" d="M 371.5,166.5 C 371.5,169.167 371.5,171.833 371.5,174.5C 370.85,174.804 370.183,175.137 369.5,175.5C 368.516,172.572 368.183,169.572 368.5,166.5C 353.706,165.677 354.706,165.677 371.5,166.5 Z"/></g>
<g><path style="opacity:1" fill="#5e5e60" d="M 500.5,139.5 C 501.498,167.995 501.831,196.662 501.5,225.5C 500.167,211.516 499.501,197.183 499.5,182.5C 499.5,167.996 499.833,153.663 500.5,139.5 Z"/></g>
<g><path style="opacity:1" fill="#ced0d0" d="M 190.5,138.5 C 190.643,140.262 190.309,141.929 189.5,143.5C 190.63,144.622 191.297,145.956 191.5,147.5C 188.827,156.516 185.994,165.516 183,174.5C 180.726,183.701 179.559,193.034 179.5,202.5C 178.686,204.631 178.186,206.964 178,209.5C 177.667,202.833 177.333,196.167 177,189.5C 176.174,192.793 175.674,196.126 175.5,199.5C 174.837,197.958 174.17,196.291 173.5,194.5C 172.831,196.631 172.165,198.631 171.5,200.5C 174.141,178.578 180.474,157.911 190.5,138.5 Z"/></g>
<g><path style="opacity:1" fill="#555455" d="M 449.5,160.5 C 449.5,168.167 449.5,175.833 449.5,183.5C 446.5,183.5 443.5,183.5 440.5,183.5C 437.167,183.5 433.833,183.5 430.5,183.5C 430.5,177.5 430.5,171.5 430.5,165.5C 431.489,170.975 431.822,176.642 431.5,182.5C 437.167,182.5 442.833,182.5 448.5,182.5C 448.175,174.981 448.508,167.648 449.5,160.5 Z"/></g>
<g><path style="opacity:1" fill="#4c4c4c" d="M 232.5,145.5 C 235.713,145.19 238.713,145.523 241.5,146.5C 238.833,146.5 236.167,146.5 233.5,146.5C 233.5,174.833 233.5,203.167 233.5,231.5C 233.167,231.5 232.833,231.5 232.5,231.5C 232.5,202.833 232.5,174.167 232.5,145.5 Z"/></g>
<g><path style="opacity:1" fill="#272829" d="M 288.5,159.5 C 288.334,163.846 288.501,168.179 289,172.5C 291.533,160.659 293.367,160.992 294.5,173.5C 293.198,172.193 291.865,172.193 290.5,173.5C 289.513,176.768 289.18,180.102 289.5,183.5C 288.791,184.404 287.791,184.737 286.5,184.5C 286.464,175.963 287.131,167.63 288.5,159.5 Z"/></g>
<g><path style="opacity:1" fill="#151515" d="M 541.5,237.5 C 539.216,237.025 537.216,236.025 535.5,234.5C 531.989,222.477 528.156,210.477 524,198.5C 523.536,199.094 523.369,199.761 523.5,200.5C 522.656,197.655 521.99,194.655 521.5,191.5C 517.636,181.082 513.469,170.749 509,160.5C 508.536,161.094 508.369,161.761 508.5,162.5C 507.167,161.167 505.833,161.167 504.5,162.5C 504.768,160.901 504.434,159.568 503.5,158.5C 503.334,152.158 503.5,145.825 504,139.5C 506.588,143.674 508.921,148.007 511,152.5C 521.003,178.51 529.837,205.01 537.5,232C 538.637,234.041 539.97,235.875 541.5,237.5 Z"/></g>
<g><path style="opacity:1" fill="#424243" d="M 521.5,191.5 C 520.504,191.586 519.671,191.252 519,190.5C 516.186,180.889 512.686,171.556 508.5,162.5C 508.369,161.761 508.536,161.094 509,160.5C 513.469,170.749 517.636,181.082 521.5,191.5 Z"/></g>
<g><path style="opacity:1" fill="#575758" d="M 294.5,173.5 C 299.761,174.099 305.094,174.932 310.5,176C 311.554,178.382 312.221,180.882 312.5,183.5C 313.833,183.5 315.167,183.5 316.5,183.5C 316.5,182.5 316.5,181.5 316.5,180.5C 319.488,182.273 322.821,182.94 326.5,182.5C 326.5,183.167 326.833,183.5 327.5,183.5C 324.713,184.477 321.713,184.81 318.5,184.5C 317.5,184.5 316.5,184.5 315.5,184.5C 313.712,184.785 312.045,184.452 310.5,183.5C 309.533,182.016 308.2,181.016 306.5,180.5C 306.5,179.167 306.5,177.833 306.5,176.5C 300.9,177.492 295.567,178.825 290.5,180.5C 290.737,181.791 290.404,182.791 289.5,183.5C 289.18,180.102 289.513,176.768 290.5,173.5C 291.865,172.193 293.198,172.193 294.5,173.5 Z"/></g>
<g><path style="opacity:1" fill="#a9a9aa" d="M 306.5,180.5 C 303.5,180.5 300.5,180.5 297.5,180.5C 297.5,181.5 297.5,182.5 297.5,183.5C 295.396,183.201 293.396,183.534 291.5,184.5C 299.657,185.82 307.657,185.82 315.5,184.5C 316.5,184.5 317.5,184.5 318.5,184.5C 324.645,185.49 330.978,185.823 337.5,185.5C 319.5,186.833 301.5,186.833 283.5,185.5C 284.791,185.737 285.791,185.404 286.5,184.5C 287.791,184.737 288.791,184.404 289.5,183.5C 290.404,182.791 290.737,181.791 290.5,180.5C 295.567,178.825 300.9,177.492 306.5,176.5C 306.5,177.833 306.5,179.167 306.5,180.5 Z"/></g>
<g><path style="opacity:1" fill="#98989a" d="M 374.5,178.5 C 376.048,178.821 376.715,179.821 376.5,181.5C 374.265,181.795 372.265,181.461 370.5,180.5C 372.265,181.461 374.265,181.795 376.5,181.5C 376.715,179.821 376.048,178.821 374.5,178.5 Z"/></g>
<g><path style="opacity:1" fill="#ececed" d="M 306.5,180.5 C 308.2,181.016 309.533,182.016 310.5,183.5C 312.045,184.452 313.712,184.785 315.5,184.5C 307.657,185.82 299.657,185.82 291.5,184.5C 293.396,183.534 295.396,183.201 297.5,183.5C 297.5,182.5 297.5,181.5 297.5,180.5C 300.5,180.5 303.5,180.5 306.5,180.5 Z"/></g>
<g><path style="opacity:1" fill="#5e5e5f" d="M 503.5,158.5 C 504.434,159.568 504.768,160.901 504.5,162.5C 504.5,183.5 504.5,204.5 504.5,225.5C 507.713,225.19 510.713,225.523 513.5,226.5C 509.958,226.813 506.625,226.479 503.5,225.5C 503.5,203.167 503.5,180.833 503.5,158.5 Z"/></g>
<g><path style="opacity:1" fill="#7a7a7b" d="M 244.5,147.5 C 245.813,165.372 245.813,183.372 244.5,201.5C 242.989,202.502 241.322,203.169 239.5,203.5C 239.5,202.5 239.5,201.5 239.5,200.5C 241.451,200.773 242.951,200.107 244,198.5C 244.5,181.503 244.667,164.503 244.5,147.5 Z"/></g>
<g><path style="opacity:1" fill="#ababab" d="M 270.5,175.5 C 270.833,175.5 271.167,175.5 271.5,175.5C 271.5,178.5 271.5,181.5 271.5,184.5C 275.702,184.183 279.702,184.517 283.5,185.5C 278.821,185.666 274.155,185.499 269.5,185C 270.451,181.943 270.784,178.777 270.5,175.5 Z"/></g>
<g><path style="opacity:1" fill="#656666" d="M 340.5,185.5 C 347.982,184.508 355.648,184.175 363.5,184.5C 363.5,186.5 363.5,188.5 363.5,190.5C 366.167,190.5 368.833,190.5 371.5,190.5C 371.5,191.5 371.5,192.5 371.5,193.5C 371.167,193.5 370.833,193.5 370.5,193.5C 368.365,191.631 365.698,190.964 362.5,191.5C 362.5,189.5 362.5,187.5 362.5,185.5C 355.167,185.5 347.833,185.5 340.5,185.5 Z"/></g>
<g><path style="opacity:1" fill="#dbdbdd" d="M 227.5,145.5 C 229.167,145.5 230.833,145.5 232.5,145.5C 232.5,174.167 232.5,202.833 232.5,231.5C 230.833,231.5 229.167,231.5 227.5,231.5C 227.5,202.833 227.5,174.167 227.5,145.5 Z"/></g>
<g><path style="opacity:1" fill="#7d7d7e" d="M 255.5,184.5 C 254.282,185.161 252.949,185.828 251.5,186.5C 279.997,187.167 308.33,187.833 336.5,188.5C 307.833,188.5 279.167,188.5 250.5,188.5C 250.5,187.167 250.5,185.833 250.5,184.5C 252.167,184.5 253.833,184.5 255.5,184.5 Z"/></g>
<g><path style="opacity:1" fill="#2a2a2b" d="M 447.5,188.5 C 448.451,189.919 448.784,191.585 448.5,193.5C 432.5,193.5 416.5,193.5 400.5,193.5C 400.5,192.5 400.5,191.5 400.5,190.5C 416.397,190.523 432.063,189.857 447.5,188.5 Z"/></g>
<g><path style="opacity:1" fill="#484747" d="M 399.5,194.5 C 399.5,196.167 399.5,197.833 399.5,199.5C 399.663,201.857 399.497,204.19 399,206.5C 398.667,204.5 398.333,202.5 398,200.5C 397.814,203.036 397.314,205.369 396.5,207.5C 396.5,202.833 396.5,198.167 396.5,193.5C 390.167,193.5 383.833,193.5 377.5,193.5C 377.414,192.504 377.748,191.671 378.5,191C 385.158,190.5 391.825,190.334 398.5,190.5C 398.232,192.099 398.566,193.432 399.5,194.5 Z"/></g>
<g><path style="opacity:1" fill="#9c9c9b" d="M 370.5,193.5 C 369.432,194.434 368.099,194.768 366.5,194.5C 366.5,199.167 366.5,203.833 366.5,208.5C 365.513,203.695 365.179,198.695 365.5,193.5C 367.167,193.5 368.833,193.5 370.5,193.5 Z"/></g>
<g><path style="opacity:1" fill="#0d0c0d" d="M 241.5,146.5 C 242.791,146.263 243.791,146.596 244.5,147.5C 244.667,164.503 244.5,181.503 244,198.5C 242.951,200.107 241.451,200.773 239.5,200.5C 239.5,201.5 239.5,202.5 239.5,203.5C 241.322,203.169 242.989,202.502 244.5,201.5C 245.494,211.319 245.827,221.319 245.5,231.5C 241.5,231.5 237.5,231.5 233.5,231.5C 233.5,203.167 233.5,174.833 233.5,146.5C 236.167,146.5 238.833,146.5 241.5,146.5 Z"/></g>
<g><path style="opacity:1" fill="#0f0f0f" d="M 195.5,145.5 C 194.523,165.39 193.523,185.223 192.5,205C 193.132,208.27 193.799,211.437 194.5,214.5C 193.204,227.152 193.37,239.818 195,252.5C 195.169,240.993 195.669,229.659 196.5,218.5C 197.625,219.348 197.625,220.348 196.5,221.5C 196.5,236.833 196.5,252.167 196.5,267.5C 196.5,268.167 196.5,268.833 196.5,269.5C 196.5,274.167 196.5,278.833 196.5,283.5C 195.539,285.265 195.205,287.265 195.5,289.5C 192.715,288.916 191.048,289.916 190.5,292.5C 189.5,293.833 188.5,293.833 187.5,292.5C 185.485,286.622 183.818,280.622 182.5,274.5C 180.649,264.91 179.316,255.243 178.5,245.5C 178.32,231.149 178.653,216.816 179.5,202.5C 179.559,193.034 180.726,183.701 183,174.5C 185.994,165.516 188.827,156.516 191.5,147.5C 192.833,146.833 194.167,146.167 195.5,145.5 Z"/></g>
<g><path style="opacity:1" fill="#080708" d="M 508.5,162.5 C 512.686,171.556 516.186,180.889 519,190.5C 519.671,191.252 520.504,191.586 521.5,191.5C 521.99,194.655 522.656,197.655 523.5,200.5C 526.092,209.114 528.592,217.78 531,226.5C 531.78,228.387 531.613,230.054 530.5,231.5C 524.791,229.66 519.124,227.993 513.5,226.5C 510.713,225.523 507.713,225.19 504.5,225.5C 504.5,204.5 504.5,183.5 504.5,162.5C 505.833,161.167 507.167,161.167 508.5,162.5 Z"/></g>
<g><path style="opacity:1" fill="#0c0c0c" d="M 461.5,144.5 C 461.5,173.833 461.5,203.167 461.5,232.5C 463.415,232.216 465.081,232.549 466.5,233.5C 462.832,234.998 459.498,236.998 456.5,239.5C 455.18,236.572 454.514,233.239 454.5,229.5C 455.208,220.003 455.875,210.503 456.5,201C 456.499,197.317 456.165,193.817 455.5,190.5C 455.773,182.112 455.44,173.779 454.5,165.5C 455.491,158.687 455.825,151.687 455.5,144.5C 457.5,144.5 459.5,144.5 461.5,144.5 Z"/></g>
<g><path style="opacity:1" fill="#5d5c5c" d="M 468.5,140.5 C 468.169,171.005 468.502,201.338 469.5,231.5C 468.71,232.401 467.71,233.068 466.5,233.5C 465.081,232.549 463.415,232.216 461.5,232.5C 461.5,203.167 461.5,173.833 461.5,144.5C 461.833,144.5 462.167,144.5 462.5,144.5C 462.5,173.5 462.5,202.5 462.5,231.5C 464.167,231.5 465.833,231.5 467.5,231.5C 467.169,200.995 467.502,170.662 468.5,140.5 Z"/></g>
<g><path style="opacity:1" fill="#a3a5a9" d="M 239.5,206.5 C 240.675,206.281 241.675,206.614 242.5,207.5C 240.948,208.798 239.948,208.465 239.5,206.5 Z"/></g>
<g><path style="opacity:1" fill="#32302f" d="M 406.5,208.5 C 420.677,208.171 434.677,208.504 448.5,209.5C 434.459,208.851 420.792,209.518 407.5,211.5C 406.596,210.791 406.263,209.791 406.5,208.5 Z"/></g>
<g><path style="opacity:1" fill="#535354" d="M 195.5,145.5 C 195.995,169.522 196.995,193.522 198.5,217.5C 198.5,218.833 198.5,220.167 198.5,221.5C 197.833,221.5 197.167,221.5 196.5,221.5C 197.625,220.348 197.625,219.348 196.5,218.5C 196.579,215.729 196.079,213.063 195,210.5C 194.51,211.793 194.343,213.127 194.5,214.5C 193.799,211.437 193.132,208.27 192.5,205C 193.523,185.223 194.523,165.39 195.5,145.5 Z"/></g>
<g><path style="opacity:1" fill="#d5d7d7" d="M 455.5,190.5 C 456.165,193.817 456.499,197.317 456.5,201C 455.875,210.503 455.208,220.003 454.5,229.5C 454.514,233.239 455.18,236.572 456.5,239.5C 453.639,240.34 450.973,241.673 448.5,243.5C 448.5,232.167 448.5,220.833 448.5,209.5C 434.677,208.504 420.677,208.171 406.5,208.5C 422.678,207.741 439.011,207.075 455.5,206.5C 455.5,201.167 455.5,195.833 455.5,190.5 Z"/></g>
<g><path style="opacity:1" fill="#303032" d="M 199.5,189.5 C 200.167,189.5 200.833,189.5 201.5,189.5C 200.874,196.584 201.541,203.25 203.5,209.5C 203.5,217.5 203.5,225.5 203.5,233.5C 202.833,228.833 202.167,224.167 201.5,219.5C 201.81,216.287 201.477,213.287 200.5,210.5C 199.614,203.543 199.28,196.543 199.5,189.5 Z"/></g>
<g><path style="opacity:1" fill="#cacbcb" d="M 399.5,199.5 C 400.319,202.305 400.819,205.305 401,208.5C 402.356,209.38 403.856,209.714 405.5,209.5C 405.285,211.179 405.952,212.179 407.5,212.5C 410.486,215.836 411.819,219.836 411.5,224.5C 410.732,223.737 410.232,222.737 410,221.5C 409.536,222.094 409.369,222.761 409.5,223.5C 407.228,220.186 405.395,216.519 404,212.5C 403.667,212.167 403.333,211.833 403,211.5C 402.517,212.448 402.351,213.448 402.5,214.5C 402.167,214.5 401.833,214.5 401.5,214.5C 400.549,213.081 400.216,211.415 400.5,209.5C 399.041,209.433 397.708,209.766 396.5,210.5C 396.5,209.5 396.5,208.5 396.5,207.5C 397.314,205.369 397.814,203.036 398,200.5C 398.333,202.5 398.667,204.5 399,206.5C 399.497,204.19 399.663,201.857 399.5,199.5 Z"/></g>
<g><path style="opacity:1" fill="#fcfcfc" d="M 370.5,193.5 C 370.833,193.5 371.167,193.5 371.5,193.5C 373.5,193.5 375.5,193.5 377.5,193.5C 383.833,193.5 390.167,193.5 396.5,193.5C 396.5,198.167 396.5,202.833 396.5,207.5C 396.5,208.5 396.5,209.5 396.5,210.5C 395.92,214.81 395.586,219.143 395.5,223.5C 395.5,225.5 395.5,227.5 395.5,229.5C 397.833,229.5 400.167,229.5 402.5,229.5C 402.187,225.958 402.521,222.625 403.5,219.5C 405.226,221.82 405.893,224.487 405.5,227.5C 406.833,227.5 408.167,227.5 409.5,227.5C 409.5,226.167 409.5,224.833 409.5,223.5C 409.369,222.761 409.536,222.094 410,221.5C 410.232,222.737 410.732,223.737 411.5,224.5C 415.531,227.888 418.031,232.222 419,237.5C 420.3,244.771 420.8,252.104 420.5,259.5C 418.856,259.81 417.856,260.81 417.5,262.5C 416.5,264.167 415.167,265.5 413.5,266.5C 412.526,267.635 411.359,268.635 410,269.5C 409.517,268.552 409.351,267.552 409.5,266.5C 409.666,261.821 409.499,257.155 409,252.5C 408.722,251.584 408.222,250.918 407.5,250.5C 393.343,249.504 379.01,249.171 364.5,249.5C 364.5,306.5 364.5,363.5 364.5,420.5C 370.5,420.5 376.5,420.5 382.5,420.5C 382.5,424.5 382.5,428.5 382.5,432.5C 360.5,432.5 338.5,432.5 316.5,432.5C 316.5,430.833 316.5,429.167 316.5,427.5C 316.5,425.167 316.5,422.833 316.5,420.5C 322.833,420.5 329.167,420.5 335.5,420.5C 335.5,363.5 335.5,306.5 335.5,249.5C 320.657,249.171 305.99,249.504 291.5,250.5C 293.593,255.895 294.593,261.561 294.5,267.5C 289.5,267.5 284.5,267.5 279.5,267.5C 279.141,257.776 279.641,248.109 281,238.5C 283.23,233.107 286.73,228.774 291.5,225.5C 293.68,224.883 295.68,223.883 297.5,222.5C 295.784,222.003 294.117,221.669 292.5,221.5C 294.307,218.781 296.64,216.781 299.5,215.5C 301.806,215.007 304.139,214.674 306.5,214.5C 306.838,217.157 306.171,219.49 304.5,221.5C 305.393,224.084 305.726,226.751 305.5,229.5C 316.167,229.5 326.833,229.5 337.5,229.5C 356.167,229.5 374.833,229.5 393.5,229.5C 393.824,222.646 393.491,215.979 392.5,209.5C 384.016,208.507 375.349,208.174 366.5,208.5C 366.5,203.833 366.5,199.167 366.5,194.5C 368.099,194.768 369.432,194.434 370.5,193.5 Z"/></g>
<g><path style="opacity:1" fill="#686767" d="M 179.5,202.5 C 178.653,216.816 178.32,231.149 178.5,245.5C 177.669,234.341 177.169,223.007 177,211.5C 175.879,217.175 175.045,222.842 174.5,228.5C 173.365,218.929 173.698,209.263 175.5,199.5C 175.674,196.126 176.174,192.793 177,189.5C 177.333,196.167 177.667,202.833 178,209.5C 178.186,206.964 178.686,204.631 179.5,202.5 Z"/></g>
<g><path style="opacity:1" fill="#8e8d8f" d="M 401.5,214.5 C 401.833,214.5 402.167,214.5 402.5,214.5C 403.038,216.117 403.371,217.784 403.5,219.5C 402.521,222.625 402.187,225.958 402.5,229.5C 400.167,229.5 397.833,229.5 395.5,229.5C 395.5,227.5 395.5,225.5 395.5,223.5C 396.451,224.919 396.784,226.585 396.5,228.5C 398.167,228.5 399.833,228.5 401.5,228.5C 401.5,223.833 401.5,219.167 401.5,214.5 Z"/></g>
<g><path style="opacity:1" fill="#49494a" d="M 299.5,215.5 C 296.64,216.781 294.307,218.781 292.5,221.5C 294.117,221.669 295.784,222.003 297.5,222.5C 295.68,223.883 293.68,224.883 291.5,225.5C 288.952,223.282 288.952,220.949 291.5,218.5C 293.858,216.713 296.525,215.713 299.5,215.5 Z"/></g>
<g><path style="opacity:1" fill="#848385" d="M 200.5,210.5 C 201.477,213.287 201.81,216.287 201.5,219.5C 201.064,236.694 200.398,253.861 199.5,271C 199.57,271.765 199.903,272.265 200.5,272.5C 200.483,274.565 200.15,276.565 199.5,278.5C 198.523,275.713 198.19,272.713 198.5,269.5C 198.5,260.5 198.5,251.5 198.5,242.5C 199.833,235.5 199.833,228.5 198.5,221.5C 198.5,220.167 198.5,218.833 198.5,217.5C 200.344,215.721 201.01,213.388 200.5,210.5 Z"/></g>
<g><path style="opacity:1" fill="#1e1e1f" d="M 409.5,223.5 C 409.5,224.833 409.5,226.167 409.5,227.5C 408.167,227.5 406.833,227.5 405.5,227.5C 405.893,224.487 405.226,221.82 403.5,219.5C 403.371,217.784 403.038,216.117 402.5,214.5C 402.351,213.448 402.517,212.448 403,211.5C 403.333,211.833 403.667,212.167 404,212.5C 405.395,216.519 407.228,220.186 409.5,223.5 Z"/></g>
<g><path style="opacity:1" fill="#090a0a" d="M 401.5,214.5 C 401.5,219.167 401.5,223.833 401.5,228.5C 399.833,228.5 398.167,228.5 396.5,228.5C 396.784,226.585 396.451,224.919 395.5,223.5C 395.586,219.143 395.92,214.81 396.5,210.5C 397.708,209.766 399.041,209.433 400.5,209.5C 400.216,211.415 400.549,213.081 401.5,214.5 Z"/></g>
<g><path style="opacity:1" fill="#e3e2e3" d="M 175.5,199.5 C 173.698,209.263 173.365,218.929 174.5,228.5C 173.746,240.068 174.746,251.402 177.5,262.5C 176.448,262.351 175.448,262.517 174.5,263C 175.138,264.707 175.138,266.54 174.5,268.5C 169.299,246.115 168.299,223.448 171.5,200.5C 172.165,198.631 172.831,196.631 173.5,194.5C 174.17,196.291 174.837,197.958 175.5,199.5 Z"/></g>
<g><path style="opacity:1" fill="#afafb0" d="M 196.5,221.5 C 197.167,221.5 197.833,221.5 198.5,221.5C 199.833,228.5 199.833,235.5 198.5,242.5C 198.666,235.825 198.5,229.158 198,222.5C 197.831,237.672 197.331,252.672 196.5,267.5C 196.5,252.167 196.5,236.833 196.5,221.5 Z"/></g>
<g><path style="opacity:1" fill="#898789" d="M 535.5,234.5 C 533.632,233.737 531.965,232.737 530.5,231.5C 531.613,230.054 531.78,228.387 531,226.5C 528.592,217.78 526.092,209.114 523.5,200.5C 523.369,199.761 523.536,199.094 524,198.5C 528.156,210.477 531.989,222.477 535.5,234.5 Z"/></g>
<g><path style="opacity:1" fill="#6d6d6d" d="M 196.5,218.5 C 195.669,229.659 195.169,240.993 195,252.5C 193.37,239.818 193.204,227.152 194.5,214.5C 194.343,213.127 194.51,211.793 195,210.5C 196.079,213.063 196.579,215.729 196.5,218.5 Z"/></g>
<g><path style="opacity:1" fill="#4b4b4b" d="M 392.5,209.5 C 393.491,215.979 393.824,222.646 393.5,229.5C 374.833,229.5 356.167,229.5 337.5,229.5C 355.659,228.503 373.992,228.17 392.5,228.5C 392.5,222.167 392.5,215.833 392.5,209.5 Z"/></g>
<g><path style="opacity:1" fill="#575557" d="M 201.5,219.5 C 202.167,224.167 202.833,228.833 203.5,233.5C 203.174,241.684 203.508,249.684 204.5,257.5C 204.5,258.167 204.5,258.833 204.5,259.5C 203.5,259.5 202.5,259.5 201.5,259.5C 201.5,263.167 201.5,266.833 201.5,270.5C 201.167,271.167 200.833,271.833 200.5,272.5C 199.903,272.265 199.57,271.765 199.5,271C 200.398,253.861 201.064,236.694 201.5,219.5 Z"/></g>
<g><path style="opacity:1" fill="#6f6a68" d="M 508.5,251.5 C 510.616,253.088 510.949,255.088 509.5,257.5C 508.534,255.604 508.201,253.604 508.5,251.5 Z"/></g>
<g><path style="opacity:1" fill="#a09fa0" d="M 178.5,245.5 C 179.316,255.243 180.649,264.91 182.5,274.5C 181.85,274.804 181.183,275.137 180.5,275.5C 179.37,271.183 178.37,266.85 177.5,262.5C 174.746,251.402 173.746,240.068 174.5,228.5C 175.045,222.842 175.879,217.175 177,211.5C 177.169,223.007 177.669,234.341 178.5,245.5 Z"/></g>
<g><path style="opacity:1" fill="#444545" d="M 492.5,247.5 C 493.919,246.549 495.585,246.216 497.5,246.5C 497.5,251.833 497.5,257.167 497.5,262.5C 496.513,257.695 496.179,252.695 496.5,247.5C 495.167,247.5 493.833,247.5 492.5,247.5 Z"/></g>
<g><path style="opacity:1" fill="#e6e7e8" d="M 198.5,242.5 C 198.5,251.5 198.5,260.5 198.5,269.5C 197.833,269.5 197.167,269.5 196.5,269.5C 196.5,268.833 196.5,268.167 196.5,267.5C 197.331,252.672 197.831,237.672 198,222.5C 198.5,229.158 198.666,235.825 198.5,242.5 Z"/></g>
<g><path style="opacity:1" fill="#a3a1a2" d="M 204.5,259.5 C 203.926,263.357 202.926,267.024 201.5,270.5C 201.5,266.833 201.5,263.167 201.5,259.5C 202.5,259.5 203.5,259.5 204.5,259.5 Z"/></g>
<g><path style="opacity:1" fill="#5a595a" d="M 417.5,262.5 C 418.118,264.664 417.118,266.33 414.5,267.5C 413.893,267.376 413.56,267.043 413.5,266.5C 415.167,265.5 416.5,264.167 417.5,262.5 Z"/></g>
<g><path style="opacity:1" fill="#cbcac9" d="M 420.5,259.5 C 420.706,263.587 419.373,267.087 416.5,270C 414.026,270.113 412.026,271.113 410.5,273C 408.833,273.667 407.167,273.667 405.5,273C 407.248,270.987 408.582,268.82 409.5,266.5C 409.351,267.552 409.517,268.552 410,269.5C 411.359,268.635 412.526,267.635 413.5,266.5C 413.56,267.043 413.893,267.376 414.5,267.5C 417.118,266.33 418.118,264.664 417.5,262.5C 417.856,260.81 418.856,259.81 420.5,259.5 Z"/></g>
<g><path style="opacity:1" fill="#b4b2b2" d="M 196.5,269.5 C 197.167,269.5 197.833,269.5 198.5,269.5C 198.19,272.713 198.523,275.713 199.5,278.5C 199.162,280.854 198.662,283.187 198,285.5C 197.722,284.584 197.222,283.918 196.5,283.5C 196.5,278.833 196.5,274.167 196.5,269.5 Z"/></g>
<g><path style="opacity:1" fill="#a8a8a9" d="M 193.5,296.5 C 192.791,295.596 191.791,295.263 190.5,295.5C 190.5,296.833 190.5,298.167 190.5,299.5C 189.256,297.337 188.256,295.003 187.5,292.5C 188.5,293.833 189.5,293.833 190.5,292.5C 191.91,293.828 193.076,293.495 194,291.5C 194.78,293.387 194.613,295.054 193.5,296.5 Z"/></g>
<g><path style="opacity:1" fill="#191b1b" d="M 193.5,296.5 C 193.371,298.216 193.038,299.883 192.5,301.5C 191.833,300.833 191.167,300.167 190.5,299.5C 190.5,298.167 190.5,296.833 190.5,295.5C 191.791,295.263 192.791,295.596 193.5,296.5 Z"/></g>
<g><path style="opacity:1" fill="#7a7c7e" d="M 190.5,299.5 C 191.167,300.167 191.833,300.833 192.5,301.5C 192.719,302.675 192.386,303.675 191.5,304.5C 190.548,302.955 190.215,301.288 190.5,299.5 Z"/></g>
<g><path style="opacity:1" fill="#515152" d="M 291.5,250.5 C 305.99,249.504 320.657,249.171 335.5,249.5C 335.5,306.5 335.5,363.5 335.5,420.5C 329.167,420.5 322.833,420.5 316.5,420.5C 322.31,419.51 328.31,419.177 334.5,419.5C 334.5,363.167 334.5,306.833 334.5,250.5C 320.167,250.5 305.833,250.5 291.5,250.5 Z"/></g>
<g><path style="opacity:1" fill="#949495" d="M 407.5,250.5 C 393.5,250.5 379.5,250.5 365.5,250.5C 365.5,306.833 365.5,363.167 365.5,419.5C 371.69,419.177 377.69,419.51 383.5,420.5C 383.167,420.5 382.833,420.5 382.5,420.5C 376.5,420.5 370.5,420.5 364.5,420.5C 364.5,363.5 364.5,306.5 364.5,249.5C 379.01,249.171 393.343,249.504 407.5,250.5 Z"/></g>
<g><path style="opacity:1" fill="#565656" d="M 502.5,382.5 C 502.842,393.372 503.842,404.039 505.5,414.5C 504.791,415.404 503.791,415.737 502.5,415.5C 502.5,404.5 502.5,393.5 502.5,382.5 Z"/></g>
<g><path style="opacity:1" fill="#c4c5c5" d="M 303.5,429.5 C 304.434,430.568 304.768,431.901 304.5,433.5C 291.989,433.829 279.655,433.495 267.5,432.5C 279.5,432.5 291.5,432.5 303.5,432.5C 303.5,431.5 303.5,430.5 303.5,429.5 Z"/></g>
<g><path style="opacity:1" fill="#c4c4c5" d="M 382.5,420.5 C 382.833,420.5 383.167,420.5 383.5,420.5C 383.5,424.833 383.5,429.167 383.5,433.5C 360.833,433.5 338.167,433.5 315.5,433.5C 315.205,431.265 315.539,429.265 316.5,427.5C 316.5,429.167 316.5,430.833 316.5,432.5C 338.5,432.5 360.5,432.5 382.5,432.5C 382.5,428.5 382.5,424.5 382.5,420.5 Z"/></g>
<g><path style="opacity:1" fill="#555555" d="M 149.5,431.5 C 157.769,433.47 166.435,434.136 175.5,433.5C 166.682,434.493 157.682,434.827 148.5,434.5C 148.263,433.209 148.596,432.209 149.5,431.5 Z"/></g>
</svg>
